<svg width="31" height="32" viewBox="0 0 31 32" fill="none" xmlns="http://www.w3.org/2000/svg">
<path fill-rule="evenodd" clip-rule="evenodd" d="M2.72835 2.78911C1.83348 3.77311 1.09509 4.60863 1.08739 4.64583C1.07966 4.68303 1.96551 5.63394 3.05588 6.75889L5.03845 8.80434L4.96002 8.96486C4.91691 9.05315 4.82003 9.22157 4.74479 9.33912C4.61132 9.54742 4.42898 9.9316 4.03971 10.8245C3.40746 12.2751 3.00604 14.2848 3.00604 16C3.00604 17.5762 3.43103 19.7904 3.97177 21.0319C4.36423 21.9328 4.61806 22.4638 4.82322 22.8129L5.04671 23.193L4.08404 24.1871C1.7481 26.5994 1.06693 27.3231 1.08355 27.3748C1.11638 27.4769 4.34766 31 4.40838 31C4.44135 31 5.36275 30.0535 6.456 28.8966L8.44364 26.7933L8.83006 27.0615C9.37999 27.4431 10.6705 28.0953 11.2867 28.3029C12.8427 28.8273 13.7563 28.9777 15.3443 28.971C16.6098 28.9658 17.2591 28.8815 18.3573 28.5801C19.5355 28.2567 20.7115 27.7272 21.61 27.1154C21.8074 26.9811 21.9966 26.8534 22.0304 26.8317C22.0664 26.8087 22.9156 27.6678 24.0711 28.8961C25.1595 30.0533 26.0772 31 26.1104 31C26.1435 31 26.8812 30.2303 27.7497 29.2895C28.6182 28.3487 29.3745 27.5315 29.4304 27.4736C29.5287 27.3716 29.4663 27.2999 27.5193 25.2771L25.5065 23.1859L25.7449 22.7861C26.5537 21.4295 27.2257 19.4077 27.4329 17.7076C27.5412 16.8185 27.5412 15.1815 27.4329 14.2924C27.2326 12.6496 26.5824 10.6876 25.7623 9.25189L25.5154 8.81957L26.53 7.76182C27.088 7.18014 27.9845 6.24534 28.5223 5.68457L29.4999 4.66503L29.327 4.45531C28.9554 4.00485 26.1534 1 26.1049 1C26.0767 1 25.1613 1.94532 24.0709 3.10078L22.0884 5.20152L21.7554 4.96203C21.3167 4.64643 20.037 3.97891 19.4525 3.76078C19.1969 3.66538 18.7021 3.51686 18.353 3.43069C18.0038 3.34457 17.6187 3.24931 17.4973 3.21903C16.7054 3.02145 14.5828 2.97243 13.5777 3.12852C11.859 3.39543 10.0668 4.07694 8.79885 4.94583L8.43109 5.19783L6.45032 3.09894C5.36082 1.94449 4.4438 1 4.41241 1C4.38106 1 3.62325 1.80511 2.72835 2.78911ZM10.7012 9.76923C12.8871 7.92308 15.5102 7.46154 18.5704 8.84615C19.4448 9.6154 19.4448 9.30769 21.1935 11.1538C22.505 13 24.6909 19 18.5704 23.1538C15.9473 24.5385 11.5755 24.5385 8.95247 20.3846C8.80676 20.0769 8.661 19.7692 8.51529 19.4615C7.64093 17.6154 7.64093 15.3077 8.07811 13.4615L8.95247 11.6154L10.7012 9.76923ZM14.5162 8.0554C13.8808 8.13345 13.4403 8.23351 12.8856 8.42592C11.6643 8.84952 10.9133 9.34817 9.93416 10.3857C9.56981 10.7718 9.16665 11.2588 9.03825 11.4678C8.9098 11.6769 8.78162 11.8772 8.75334 11.913C8.6203 12.0813 8.18496 13.131 8.05276 13.6024C7.81624 14.4453 7.74441 14.9911 7.74122 15.9707C7.7379 16.9819 7.79211 17.4124 8.03557 18.309C8.36652 19.528 8.91111 20.5125 9.79251 21.4853C10.079 21.8014 10.5137 22.2168 10.7586 22.4084C11.0035 22.5999 11.2365 22.785 11.2764 22.8198C11.4476 22.9688 12.3529 23.401 12.8877 23.589C13.7227 23.8825 14.1634 23.9504 15.2339 23.9504C16.299 23.9504 16.7441 23.8826 17.5679 23.5948C18.7621 23.1777 19.5692 22.6397 20.5362 21.6162C21.5367 20.5571 22.0612 19.6412 22.4317 18.3057C22.67 17.4466 22.7271 17.0031 22.7283 16C22.7294 14.9668 22.63 14.2793 22.3535 13.4111C21.9648 12.1899 21.4902 11.3986 20.5351 10.379C19.4495 9.22018 18.5242 8.65591 17.0542 8.25635C16.3264 8.05858 15.2101 7.97015 14.5162 8.0554ZM16.338 8.19502C16.7621 8.25889 17.6307 8.47498 17.7181 8.53835C17.7485 8.56042 17.9223 8.64058 18.1045 8.71655C19.2117 9.17832 20.5719 10.3161 21.2207 11.3232C21.3134 11.4671 21.4634 11.6999 21.554 11.8405C21.6447 11.9812 21.8208 12.3299 21.9454 12.6154C22.0701 12.9009 22.1921 13.1759 22.2166 13.2265C22.312 13.4231 22.4964 14.2185 22.5754 14.7741C22.7306 15.8649 22.6561 17.1771 22.3783 18.2493C22.2151 18.8789 21.6699 20.024 21.2456 20.6284C20.8619 21.1751 20.0066 22.0942 19.6729 22.3184C19.5639 22.3917 19.4397 22.4879 19.3969 22.5323C19.1138 22.8255 17.7458 23.4957 17.1109 23.6523C15.8317 23.9676 14.2605 23.9394 13.1085 23.5804C12.7537 23.47 11.8692 23.0851 11.7582 22.9931C11.7266 22.9669 11.5814 22.8759 11.4357 22.7909C11.2899 22.7059 11.1408 22.6096 11.1044 22.5771C11.068 22.5444 10.8768 22.3834 10.6795 22.2192C10.1816 21.805 9.65865 21.2346 9.24626 20.6561C8.88436 20.1484 8.42392 19.2729 8.30457 18.8655C8.26689 18.7368 8.21832 18.6052 8.19668 18.5731C8.02526 18.3185 7.80947 16.8682 7.80947 15.9707C7.80947 13.4391 8.83614 11.306 10.8469 9.65971C11.3819 9.22175 12.2823 8.7154 12.9429 8.48094C13.8049 8.17498 15.3442 8.04538 16.338 8.19502Z" fill="#CD837B" stroke="#CD837B" stroke-width="2"/>
</svg>
