<svg width="67" height="67" viewBox="0 0 67 67" fill="none" xmlns="http://www.w3.org/2000/svg">
<path fill-rule="evenodd" clip-rule="evenodd" d="M8.48208 8.48973C6.70285 10.3429 5.23472 11.9165 5.21942 11.9866C5.20403 12.0566 6.96535 13.8475 9.1333 15.9662L13.0752 19.8184L12.9192 20.1207C12.8335 20.287 12.6409 20.6042 12.4913 20.8256C12.2259 21.2179 11.8634 21.9414 11.0894 23.6231C9.83234 26.355 9.03421 30.1399 9.03421 33.3702C9.03421 36.3387 9.87919 40.5089 10.9543 42.8469C11.7347 44.5437 12.2393 45.5436 12.6473 46.2011L13.0916 46.917L11.1776 48.7894C6.53309 53.3325 5.17874 54.6954 5.21177 54.7929C5.27705 54.9851 11.7017 61.6202 11.8224 61.6202C11.888 61.6202 13.72 59.8377 15.8937 57.6588L19.8456 53.6975L20.6139 54.2027C21.7073 54.9214 24.2733 56.1497 25.4984 56.5407C28.5922 57.5282 30.4086 57.8116 33.566 57.799C36.0821 57.7891 37.3731 57.6305 39.5566 57.0627C41.8992 56.4536 44.2374 55.4564 46.024 54.3042C46.4165 54.0512 46.7926 53.8108 46.8598 53.77C46.9314 53.7267 48.6199 55.3447 50.9172 57.6579C53.0813 59.8373 54.906 61.6202 54.9719 61.6202C55.0377 61.6202 56.5045 60.1706 58.2314 58.3988C59.9582 56.6269 61.4619 55.088 61.573 54.9788C61.7684 54.7868 61.6443 54.6518 57.7731 50.842L53.7712 46.9037L54.2453 46.1507C55.8533 43.5959 57.1894 39.788 57.6014 36.5861C57.8168 34.9117 57.8168 31.8287 57.6014 30.1543C57.2033 27.0603 55.9104 23.3651 54.2798 20.6613L53.7888 19.8471L55.8061 17.855C56.9156 16.7595 58.6982 14.999 59.7674 13.9428L61.7112 12.0227L61.3673 11.6277C60.6286 10.7794 55.0575 5.12024 54.9611 5.12024C54.9048 5.12024 53.0849 6.9006 50.9169 9.07672L46.975 13.0331L46.313 12.5821C45.4407 11.9877 42.8963 10.7305 41.7342 10.3197C41.2261 10.14 40.2423 9.86033 39.548 9.69804C38.8538 9.53584 38.0882 9.35644 37.8467 9.29941C36.2723 8.9273 32.0519 8.83498 30.0535 9.12896C26.6363 9.63163 23.0729 10.9151 20.5519 12.5516L19.8207 13.0262L15.8824 9.07324C13.7162 6.89903 11.8929 5.12024 11.8304 5.12024C11.7681 5.12024 10.2614 6.63653 8.48208 8.48973ZM24.3342 21.6356C28.6804 18.1587 33.8958 17.2895 39.9804 19.8972C41.7189 21.3459 41.7189 20.7664 45.1958 24.2433C47.8035 27.7202 52.1496 39.0202 39.9804 46.8433C34.765 49.451 26.0727 49.451 20.8573 41.6279C20.5676 41.0484 20.2778 40.469 19.9881 39.8895C18.2496 36.4125 18.2496 32.0664 19.1189 28.5895L20.8573 25.1125L24.3342 21.6356ZM31.9195 18.4079C30.6561 18.5549 29.7803 18.7433 28.6774 19.1057C26.2491 19.9035 24.756 20.8426 22.8092 22.7967C22.0848 23.5239 21.2832 24.4409 21.0279 24.8347C20.7725 25.2284 20.5176 25.6057 20.4614 25.673C20.1969 25.99 19.3313 27.967 19.0684 28.8547C18.5982 30.4422 18.4554 31.4702 18.449 33.3151C18.4424 35.2194 18.5502 36.0303 19.0343 37.7188C19.6923 40.0146 20.7751 41.8687 22.5275 43.701C23.0972 44.2963 23.9615 45.0786 24.4484 45.4393C24.9354 45.8 25.3986 46.1487 25.478 46.2142C25.8183 46.4948 27.6184 47.3089 28.6815 47.6628C30.3418 48.2156 31.2181 48.3434 33.3464 48.3434C35.4642 48.3434 36.3491 48.2157 37.9871 47.6738C40.3616 46.8882 41.9662 45.875 43.8888 43.9474C45.8782 41.9528 46.9209 40.2279 47.6577 37.7126C48.1315 36.0947 48.245 35.2594 48.2474 33.3702C48.2497 31.4244 48.0519 30.1297 47.5023 28.4945C46.7294 26.1945 45.7857 24.7042 43.8866 22.784C41.7283 20.6016 39.8885 19.5389 36.9658 18.7864C35.5187 18.4139 33.2992 18.2474 31.9195 18.4079ZM35.5417 18.6709C36.385 18.7912 38.1119 19.1981 38.2857 19.3175C38.3462 19.359 38.6919 19.51 39.0541 19.6531C41.2554 20.5227 43.9598 22.6655 45.2499 24.5623C45.4341 24.8333 45.7324 25.2717 45.9126 25.5366C46.0928 25.8014 46.443 26.4582 46.6908 26.9959C46.9387 27.5335 47.1814 28.0515 47.23 28.1468C47.4196 28.5171 47.7863 30.015 47.9434 31.0615C48.252 33.1157 48.1039 35.587 47.5515 37.6064C47.227 38.7922 46.143 40.9488 45.2994 42.0871C44.5364 43.1167 42.8358 44.8476 42.1724 45.2699C41.9556 45.408 41.7087 45.5892 41.6236 45.6727C41.0608 46.2249 38.3409 47.4872 37.0784 47.782C34.535 48.3759 31.4111 48.3228 29.1206 47.6467C28.4151 47.4387 26.6565 46.7139 26.4358 46.5406C26.373 46.4912 26.0844 46.3199 25.7946 46.1598C25.5047 45.9997 25.2083 45.8184 25.1359 45.757C25.0636 45.6956 24.6834 45.3923 24.291 45.083C23.3012 44.3029 22.2614 43.2288 21.4414 42.1392C20.7219 41.183 19.8064 39.5341 19.5691 38.7669C19.4942 38.5246 19.3976 38.2768 19.3546 38.2162C19.0138 37.7368 18.5847 35.0053 18.5847 33.3151C18.5847 28.5472 20.626 24.5298 24.624 21.4294C25.6876 20.6045 27.4779 19.6509 28.7913 19.2093C30.5054 18.6331 33.5658 18.389 35.5417 18.6709Z" fill="#FFEDEA"/>
<circle cx="33.25" cy="33.25" r="10.25" fill="#FFEDEA"/>
<path d="M60 32.5L65.25 21.6747L65.25 43.3253L60 32.5Z" fill="#FFEDEA"/>
<path d="M33.5 60L44.3253 65.25H22.6747L33.5 60Z" fill="#FFEDEA"/>
<path d="M33.5 7L22.6747 1.75L44.3253 1.75L33.5 7Z" fill="#FFEDEA"/>
<path d="M7 32.5L1.75 43.3253L1.75 21.6747L7 32.5Z" fill="#FFEDEA"/>
</svg>
